# xmcd
#
# Track frame offsets: 
#        150
#        12564
#        23547
#        34443
#        43534
#        53133
#        64938
#        75050
#        87863
#        97745
#        108336
#        118858
#
# Disc length: 1733 seconds
#
# Revision: 0
# Processed by: cddbd v1.5.2PL0 Copyright (c) Steve Scherf et al.
# Submitted via: ExactAudioCopy v1.1
#
DISCID=8906c30c
DTITLE=Freddy Butler - With A Dab Of Soul
DYEAR=1967
DGENRE=Soul
TTITLE0=There Was A Time
TTITLE1=That's When I Need You
TTITLE2=I Like Your Style
TTITLE3=I Fell In Love (I Can't Help It)
TTITLE4=Never Let Love Go
TTITLE5=They Say I'm Afraid (Of Losing You)
TTITLE6=This Thing!
TTITLE7=Just Because You've Been Hurt
TTITLE8=You'd Better Get Hip Girl
TTITLE9=Give Me Lots Of Lovin'
TTITLE10=She's Foolin' You
TTITLE11=Deserted
EXTD=
EXTT0=
EXTT1=
EXTT2=
EXTT3=
EXTT4=
EXTT5=
EXTT6=
EXTT7=
EXTT8=
EXTT9=
EXTT10=
EXTT11=
PLAYORDER=
